<svg xmlns="http://www.w3.org/2000/svg" xmlns:xlink="http://www.w3.org/1999/xlink" width="100" zoomAndPan="magnify" viewBox="0 0 75 74.999997" height="100" preserveAspectRatio="xMidYMid meet" version="1.0"><defs><g/><clipPath id="73aa7adb58"><path d="M 1.390625 24 L 73 24 L 73 59 L 1.390625 59 Z M 1.390625 24 " clip-rule="nonzero"/></clipPath><clipPath id="5c9da44627"><path d="M 26 5.402344 L 54 5.402344 L 54 28 L 26 28 Z M 26 5.402344 " clip-rule="nonzero"/></clipPath></defs><path fill="#72e8d2" d="M 63.472656 31.988281 C 58.335938 37.054688 49.382812 39.546875 44.890625 40.527344 C 50.800781 37.824219 57.402344 33.117188 62.863281 24.996094 C 62.863281 24.992188 64.839844 27.226562 63.472656 31.988281 Z M 63.472656 31.988281 " fill-opacity="1" fill-rule="nonzero"/><g clip-path="url(#73aa7adb58)"><path fill="#72e8d2" d="M 1.390625 50.445312 C 1.390625 50.445312 7.105469 35.171875 19.488281 33.398438 C 31.871094 31.621094 34.011719 36.710938 47.941406 31.738281 C 47.941406 31.738281 50.320312 39.199219 35.441406 41.089844 C 35.441406 41.089844 33.894531 44.050781 38.535156 44.050781 C 43.179688 44.050781 59.609375 41.988281 71.039062 24.992188 C 71.039062 24.992188 76.394531 31.027344 63.417969 44.40625 C 50.441406 57.78125 34.011719 64.648438 1.390625 50.445312 Z M 1.390625 50.445312 " fill-opacity="1" fill-rule="nonzero"/></g><g clip-path="url(#5c9da44627)"><path fill="#e24065" d="M 51.625 7.746094 C 49.265625 5.398438 45.4375 5.398438 43.074219 7.746094 L 39.890625 10.910156 L 36.710938 7.746094 C 34.347656 5.398438 30.519531 5.398438 28.160156 7.746094 C 26.980469 8.921875 26.390625 10.457031 26.390625 11.996094 C 26.390625 13.535156 26.980469 15.074219 28.160156 16.25 L 39.894531 27.917969 L 51.628906 16.25 C 53.988281 13.902344 53.988281 10.09375 51.625 7.746094 Z M 44.214844 18.542969 L 41.492188 18.542969 L 41.492188 21.25 L 38.289062 21.25 L 38.289062 18.542969 L 35.566406 18.542969 L 35.566406 15.359375 L 38.289062 15.359375 L 38.289062 12.652344 L 41.492188 12.652344 L 41.492188 15.359375 L 44.214844 15.359375 Z M 44.214844 18.542969 " fill-opacity="1" fill-rule="nonzero"/></g><g fill="#004aad" fill-opacity="1"><g transform="translate(7.282933, 67.18158)"><g><path d="M 6.515625 -2.921875 L 2.28125 -2.921875 C 2.320312 -2.347656 2.484375 -1.929688 2.765625 -1.671875 C 3.046875 -1.410156 3.425781 -1.28125 3.90625 -1.28125 C 4.289062 -1.28125 4.597656 -1.347656 4.828125 -1.484375 C 5.066406 -1.628906 5.257812 -1.847656 5.40625 -2.140625 L 5.53125 -2.140625 L 6.625 -1.421875 C 6.40625 -0.960938 6.078125 -0.585938 5.640625 -0.296875 C 5.210938 -0.015625 4.632812 0.125 3.90625 0.125 C 3.226562 0.125 2.640625 -0.00390625 2.140625 -0.265625 C 1.648438 -0.523438 1.269531 -0.910156 1 -1.421875 C 0.726562 -1.929688 0.59375 -2.554688 0.59375 -3.296875 C 0.59375 -4.046875 0.734375 -4.675781 1.015625 -5.1875 C 1.296875 -5.707031 1.675781 -6.09375 2.15625 -6.34375 C 2.644531 -6.59375 3.191406 -6.71875 3.796875 -6.71875 C 4.722656 -6.71875 5.4375 -6.46875 5.9375 -5.96875 C 6.4375 -5.476562 6.6875 -4.753906 6.6875 -3.796875 C 6.6875 -3.453125 6.671875 -3.1875 6.640625 -3 Z M 5.09375 -4 C 5.082031 -4.5 4.96875 -4.863281 4.75 -5.09375 C 4.53125 -5.320312 4.210938 -5.4375 3.796875 -5.4375 C 2.953125 -5.4375 2.457031 -4.957031 2.3125 -4 Z M 5.09375 -4 "/></g></g></g><g fill="#004aad" fill-opacity="1"><g transform="translate(14.454553, 67.18158)"><g><path d="M 4.1875 -3.515625 L 0.515625 -3.515625 L 0.515625 -4.984375 L 4.1875 -4.984375 Z M 4.1875 -3.515625 "/></g></g></g><g fill="#004aad" fill-opacity="1"><g transform="translate(19.173826, 67.18158)"><g><path d="M 4.28125 -8.75 C 5.695312 -8.75 6.78125 -8.378906 7.53125 -7.640625 C 8.28125 -6.910156 8.65625 -5.820312 8.65625 -4.375 C 8.65625 -2.925781 8.28125 -1.832031 7.53125 -1.09375 C 6.78125 -0.363281 5.695312 0 4.28125 0 L 1.140625 0 L 1.140625 -8.75 Z M 4.1875 -1.453125 C 5.082031 -1.453125 5.753906 -1.679688 6.203125 -2.140625 C 6.648438 -2.597656 6.875 -3.34375 6.875 -4.375 C 6.875 -5.394531 6.648438 -6.132812 6.203125 -6.59375 C 5.753906 -7.0625 5.082031 -7.296875 4.1875 -7.296875 L 2.859375 -7.296875 L 2.859375 -1.453125 Z M 4.1875 -1.453125 "/></g></g></g><g fill="#004aad" fill-opacity="1"><g transform="translate(28.522653, 67.18158)"><g><path d="M 3.828125 0.125 C 3.179688 0.125 2.613281 -0.00390625 2.125 -0.265625 C 1.644531 -0.535156 1.269531 -0.925781 1 -1.4375 C 0.726562 -1.945312 0.59375 -2.566406 0.59375 -3.296875 C 0.59375 -4.023438 0.726562 -4.644531 1 -5.15625 C 1.269531 -5.664062 1.644531 -6.050781 2.125 -6.3125 C 2.613281 -6.582031 3.179688 -6.71875 3.828125 -6.71875 C 4.472656 -6.71875 5.039062 -6.582031 5.53125 -6.3125 C 6.019531 -6.050781 6.398438 -5.664062 6.671875 -5.15625 C 6.941406 -4.644531 7.078125 -4.023438 7.078125 -3.296875 C 7.078125 -2.566406 6.941406 -1.945312 6.671875 -1.4375 C 6.398438 -0.925781 6.019531 -0.535156 5.53125 -0.265625 C 5.039062 -0.00390625 4.472656 0.125 3.828125 0.125 Z M 3.828125 -1.28125 C 4.859375 -1.28125 5.375 -1.953125 5.375 -3.296875 C 5.375 -3.992188 5.238281 -4.503906 4.96875 -4.828125 C 4.707031 -5.148438 4.328125 -5.3125 3.828125 -5.3125 C 2.804688 -5.3125 2.296875 -4.640625 2.296875 -3.296875 C 2.296875 -1.953125 2.804688 -1.28125 3.828125 -1.28125 Z M 3.828125 -1.28125 "/></g></g></g><g fill="#004aad" fill-opacity="1"><g transform="translate(36.190724, 67.18158)"><g><path d="M 3.84375 0.125 C 3.207031 0.125 2.644531 -0.00390625 2.15625 -0.265625 C 1.664062 -0.535156 1.28125 -0.925781 1 -1.4375 C 0.726562 -1.957031 0.59375 -2.578125 0.59375 -3.296875 C 0.59375 -4.023438 0.726562 -4.644531 1 -5.15625 C 1.28125 -5.664062 1.660156 -6.050781 2.140625 -6.3125 C 2.628906 -6.582031 3.1875 -6.71875 3.8125 -6.71875 C 5.207031 -6.71875 6.097656 -6.210938 6.484375 -5.203125 L 5.359375 -4.390625 L 5.234375 -4.390625 C 5.097656 -4.703125 4.921875 -4.929688 4.703125 -5.078125 C 4.484375 -5.234375 4.1875 -5.3125 3.8125 -5.3125 C 3.332031 -5.3125 2.957031 -5.144531 2.6875 -4.8125 C 2.425781 -4.488281 2.296875 -3.984375 2.296875 -3.296875 C 2.296875 -2.617188 2.429688 -2.113281 2.703125 -1.78125 C 2.972656 -1.445312 3.351562 -1.28125 3.84375 -1.28125 C 4.207031 -1.28125 4.507812 -1.375 4.75 -1.5625 C 5 -1.757812 5.179688 -2.039062 5.296875 -2.40625 L 5.421875 -2.421875 L 6.59375 -1.765625 C 6.425781 -1.210938 6.113281 -0.757812 5.65625 -0.40625 C 5.207031 -0.0507812 4.601562 0.125 3.84375 0.125 Z M 3.84375 0.125 "/></g></g></g><g fill="#004aad" fill-opacity="1"><g transform="translate(42.991502, 67.18158)"><g><path d="M 4.546875 -1.578125 L 4.984375 -0.34375 C 4.804688 -0.195312 4.582031 -0.0820312 4.3125 0 C 4.039062 0.0820312 3.734375 0.125 3.390625 0.125 C 2.671875 0.125 2.125 -0.0664062 1.75 -0.453125 C 1.382812 -0.847656 1.203125 -1.414062 1.203125 -2.15625 L 1.203125 -5.28125 L 0.203125 -5.28125 L 0.203125 -6.609375 L 1.203125 -6.609375 L 1.203125 -7.890625 L 2.859375 -8.15625 L 2.859375 -6.609375 L 4.734375 -6.609375 L 4.734375 -5.28125 L 2.859375 -5.28125 L 2.859375 -2.265625 C 2.859375 -1.941406 2.925781 -1.703125 3.0625 -1.546875 C 3.195312 -1.398438 3.394531 -1.328125 3.65625 -1.328125 C 3.945312 -1.328125 4.203125 -1.410156 4.421875 -1.578125 Z M 4.546875 -1.578125 "/></g></g></g><g fill="#004aad" fill-opacity="1"><g transform="translate(48.117506, 67.18158)"><g><path d="M 3.828125 0.125 C 3.179688 0.125 2.613281 -0.00390625 2.125 -0.265625 C 1.644531 -0.535156 1.269531 -0.925781 1 -1.4375 C 0.726562 -1.945312 0.59375 -2.566406 0.59375 -3.296875 C 0.59375 -4.023438 0.726562 -4.644531 1 -5.15625 C 1.269531 -5.664062 1.644531 -6.050781 2.125 -6.3125 C 2.613281 -6.582031 3.179688 -6.71875 3.828125 -6.71875 C 4.472656 -6.71875 5.039062 -6.582031 5.53125 -6.3125 C 6.019531 -6.050781 6.398438 -5.664062 6.671875 -5.15625 C 6.941406 -4.644531 7.078125 -4.023438 7.078125 -3.296875 C 7.078125 -2.566406 6.941406 -1.945312 6.671875 -1.4375 C 6.398438 -0.925781 6.019531 -0.535156 5.53125 -0.265625 C 5.039062 -0.00390625 4.472656 0.125 3.828125 0.125 Z M 3.828125 -1.28125 C 4.859375 -1.28125 5.375 -1.953125 5.375 -3.296875 C 5.375 -3.992188 5.238281 -4.503906 4.96875 -4.828125 C 4.707031 -5.148438 4.328125 -5.3125 3.828125 -5.3125 C 2.804688 -5.3125 2.296875 -4.640625 2.296875 -3.296875 C 2.296875 -1.953125 2.804688 -1.28125 3.828125 -1.28125 Z M 3.828125 -1.28125 "/></g></g></g><g fill="#004aad" fill-opacity="1"><g transform="translate(55.785577, 67.18158)"><g><path d="M 0.953125 0 L 0.953125 -6.59375 L 2.5625 -6.59375 L 2.5625 -5.609375 L 2.6875 -5.59375 C 2.84375 -5.957031 3.050781 -6.222656 3.3125 -6.390625 C 3.570312 -6.566406 3.890625 -6.65625 4.265625 -6.65625 C 4.640625 -6.65625 4.921875 -6.59375 5.109375 -6.46875 L 4.828125 -5.03125 L 4.703125 -5.015625 C 4.597656 -5.054688 4.492188 -5.085938 4.390625 -5.109375 C 4.296875 -5.128906 4.175781 -5.140625 4.03125 -5.140625 C 3.570312 -5.140625 3.21875 -4.972656 2.96875 -4.640625 C 2.726562 -4.316406 2.609375 -3.800781 2.609375 -3.09375 L 2.609375 0 Z M 0.953125 0 "/></g></g></g><g fill="#004aad" fill-opacity="1"><g transform="translate(60.969992, 67.18158)"><g/></g></g></svg>